<?xml version="1.0" standalone="no"?>
<!DOCTYPE svg PUBLIC "-//W3C//DTD SVG 20010904//EN"
 "http://www.w3.org/TR/2001/REC-SVG-20010904/DTD/svg10.dtd">
<svg version="1.0" xmlns="http://www.w3.org/2000/svg"
 width="315.000000pt" height="104.000000pt" viewBox="0 0 315.000000 104.000000"
 preserveAspectRatio="xMidYMid meet">

<g transform="translate(0.000000,104.000000) scale(0.100000,-0.100000)"
fill="#000000" stroke="none">
<path d="M0 520 l0 -520 1575 0 1575 0 0 520 0 520 -1575 0 -1575 0 0 -520z
m1760 35 l0 -255 -40 0 c-28 0 -40 4 -40 14 0 11 -8 10 -37 -5 -45 -23 -75
-24 -119 -3 -50 24 -76 73 -82 155 -5 80 13 141 54 180 21 20 36 24 82 24 31
0 65 -4 75 -9 15 -7 17 -1 17 73 l0 81 45 0 45 0 0 -255z m930 0 l0 -255 -50
0 -50 0 0 255 0 255 50 0 50 0 0 -255z m-1316 229 c19 -18 21 -55 4 -72 -15
-15 -61 -15 -76 0 -7 7 -12 24 -12 40 0 43 53 64 84 32z m537 6 c22 -12 26
-59 7 -78 -15 -15 -61 -15 -76 0 -17 17 -15 54 4 72 18 19 38 20 65 6z m934
-10 c28 -31 10 -74 -31 -78 -33 -3 -64 18 -64 44 0 20 37 54 58 54 11 0 27 -9
37 -20z m-1637 -15 c30 -13 31 -15 20 -42 -18 -43 -21 -44 -75 -32 -65 15
-101 6 -109 -26 -8 -34 7 -50 88 -91 87 -44 111 -78 105 -152 -3 -40 -10 -59
-31 -81 -48 -50 -154 -64 -238 -32 -25 9 -28 16 -28 55 l0 45 41 -14 c64 -23
135 -20 153 6 23 34 6 61 -66 99 -85 45 -106 65 -119 113 -20 77 23 148 102
167 41 10 112 3 157 -15z m-778 -150 c29 -91 57 -162 60 -158 4 4 31 79 60
166 l52 157 59 0 59 0 0 -240 0 -240 -45 0 -44 0 -3 148 -3 147 -50 -147 -49
-148 -42 0 -42 0 -49 148 -48 147 -3 -147 -3 -148 -44 0 -45 0 0 240 0 240 63
0 63 0 54 -165z m2054 -62 c44 -126 81 -234 84 -241 3 -10 -8 -12 -48 -10
l-52 3 -20 63 -19 62 -73 0 -73 0 -18 -61 c-10 -34 -24 -63 -31 -66 -6 -2 -30
-3 -52 -1 l-40 3 77 220 c42 121 80 228 84 238 5 13 18 17 54 17 l48 0 79
-227z m-1096 -70 l2 -183 -50 0 -50 0 0 186 0 185 48 -3 47 -3 3 -182z m542 2
l0 -185 -50 0 -50 0 0 178 c0 98 3 182 7 185 3 4 26 7 50 7 l43 0 0 -185z
m920 0 l0 -185 -45 0 -45 0 0 185 0 185 45 0 45 0 0 -185z m-700 -5 l0 -40
-90 0 -90 0 0 40 0 40 90 0 90 0 0 -40z"/>
<path d="M1555 560 c-8 -16 -15 -54 -15 -84 0 -43 5 -61 24 -83 21 -24 27 -26
52 -18 41 15 56 49 51 116 -7 78 -20 99 -62 99 -28 0 -37 -6 -50 -30z"/>
<path d="M2337 587 c-9 -30 -17 -57 -17 -60 0 -4 18 -7 39 -7 l40 0 -21 60
c-11 33 -21 60 -22 60 -1 0 -10 -24 -19 -53z"/>
</g>
</svg>
