<?xml version="1.0" standalone="no"?>
<!DOCTYPE svg PUBLIC "-//W3C//DTD SVG 20010904//EN"
 "http://www.w3.org/TR/2001/REC-SVG-20010904/DTD/svg10.dtd">
<svg version="1.0" xmlns="http://www.w3.org/2000/svg"
 width="136.000000pt" height="51.000000pt" viewBox="0 0 136.000000 51.000000"
 preserveAspectRatio="xMidYMid meet">

<g transform="translate(0.000000,51.000000) scale(0.100000,-0.100000)"
fill="#000000" stroke="none">
<path d="M0 255 l0 -255 680 0 680 0 0 255 0 255 -680 0 -680 0 0 -255z m730
26 l0 -99 -41 0 c-51 -1 -79 25 -79 73 0 42 32 79 61 72 14 -4 19 0 19 17 0
26 8 36 27 36 10 0 13 -23 13 -99z m350 -1 l0 -100 -40 0 c-34 0 -42 4 -50 25
-13 35 -57 35 -70 0 -6 -16 -17 -25 -31 -25 -13 0 -19 5 -16 13 3 6 18 49 33
95 23 67 32 82 49 82 17 0 26 -16 50 -87 l30 -88 3 93 c2 84 4 92 22 92 19 0
20 -7 20 -100z m-846 25 l19 -59 21 59 c18 52 25 60 46 60 25 0 25 -1 25 -90
0 -77 -2 -90 -17 -93 -15 -3 -18 4 -18 37 0 52 -13 52 -29 0 -16 -53 -39 -49
-60 11 l-16 45 -3 -48 c-3 -39 -6 -48 -20 -45 -14 3 -18 17 -20 82 -3 94 1
108 30 104 18 -2 27 -15 42 -63z m295 56 c21 -13 4 -31 -30 -31 -38 0 -37 -20
4 -45 41 -26 48 -66 15 -89 -38 -27 -98 -18 -98 14 0 15 6 17 40 13 31 -4 40
-2 40 9 0 9 -14 21 -31 28 -49 21 -60 86 -17 103 21 9 62 7 77 -2z m64 3 c4
-4 3 -12 0 -18 -4 -6 -6 -46 -4 -89 3 -72 1 -79 -16 -75 -16 3 -18 14 -19 88
-1 47 1 88 3 93 5 9 27 9 36 1z m203 -86 c-1 -81 -3 -93 -19 -96 -16 -3 -18 5
-16 92 2 83 5 96 19 96 15 0 17 -11 16 -92z m347 86 c4 -4 3 -12 0 -18 -4 -6
-6 -46 -4 -89 3 -72 1 -79 -16 -75 -16 3 -18 14 -19 88 -1 47 1 88 3 93 5 9
27 9 36 1z m-263 -109 c0 -10 -11 -15 -35 -15 -24 0 -35 5 -35 15 0 10 11 15
35 15 24 0 35 -5 35 -15z"/>
<path d="M654 276 c-9 -23 0 -51 17 -54 17 -3 28 21 21 51 -4 21 -30 23 -38 3z"/>
<path d="M946 285 c-3 -9 0 -15 9 -15 9 0 12 6 9 15 -4 8 -7 15 -9 15 -2 0 -5
-7 -9 -15z"/>
</g>
</svg>
