<?xml version="1.0" standalone="no"?>
<!DOCTYPE svg PUBLIC "-//W3C//DTD SVG 20010904//EN"
 "http://www.w3.org/TR/2001/REC-SVG-20010904/DTD/svg10.dtd">
<svg version="1.0" xmlns="http://www.w3.org/2000/svg"
 width="151.000000pt" height="36.000000pt" viewBox="0 0 151.000000 36.000000"
 preserveAspectRatio="xMidYMid meet">

<g transform="translate(0.000000,36.000000) scale(0.100000,-0.100000)"
fill="#000000" stroke="none">
<path d="M0 180 l0 -180 755 0 755 0 0 180 0 180 -755 0 -755 0 0 -180z m460
100 c0 -27 3 -30 24 -24 41 10 68 -26 64 -89 -2 -40 -7 -53 -20 -55 -15 -3
-18 4 -18 36 0 49 -8 72 -25 72 -15 0 -25 -31 -25 -78 0 -26 -4 -33 -17 -30
-15 3 -18 17 -21 101 -3 92 -2 97 18 97 16 0 20 -6 20 -30z m910 -69 l0 -99
-41 0 c-51 -1 -79 25 -79 73 0 42 32 79 61 72 14 -4 19 0 19 17 0 26 8 36 27
36 10 0 13 -23 13 -99z m-1226 24 l19 -59 21 59 c18 52 25 60 46 60 25 0 25
-1 25 -90 0 -77 -2 -90 -17 -93 -15 -3 -18 4 -18 37 0 52 -13 52 -29 0 -16
-53 -39 -49 -60 11 l-16 45 -3 -48 c-3 -39 -6 -48 -20 -45 -14 3 -18 17 -20
82 -3 94 1 108 30 104 18 -2 27 -15 42 -63z m174 -34 c3 -43 6 -52 20 -49 12
2 18 17 22 53 4 36 9 50 20 50 12 0 16 -16 18 -71 l3 -71 -43 0 c-68 -1 -78 9
-78 76 0 32 3 61 7 65 16 16 28 -4 31 -53z m347 35 c11 -16 15 -41 13 -72 l-3
-48 -46 -3 c-52 -3 -73 12 -67 48 3 22 13 30 53 45 18 6 17 8 -9 13 -34 7 -45
27 -19 34 42 11 63 6 78 -17z m215 4 c5 -8 10 -41 10 -72 0 -51 -2 -58 -20
-58 -18 0 -20 7 -20 55 0 40 -4 55 -14 55 -18 0 -26 -22 -26 -72 0 -32 -3 -39
-17 -36 -14 2 -19 15 -21 56 -2 36 -7 52 -17 52 -10 0 -15 -16 -17 -52 -2 -41
-7 -54 -20 -56 -16 -3 -18 5 -18 66 0 38 2 71 4 73 2 2 41 4 86 4 61 0 83 -4
90 -15z m217 -10 c19 -37 13 -114 -9 -118 -15 -3 -18 4 -18 36 0 50 -8 72 -26
72 -10 0 -14 -15 -14 -55 0 -48 -2 -55 -20 -55 -18 0 -20 7 -20 56 0 47 -3 55
-17 52 -14 -2 -19 -15 -21 -56 -3 -44 -6 -52 -23 -52 -17 0 -19 7 -19 68 0 38
2 71 5 73 2 3 42 5 87 5 78 -1 83 -2 95 -26z m128 6 c11 -16 15 -41 13 -72
l-3 -48 -46 -3 c-52 -3 -73 12 -67 48 3 22 13 30 53 45 18 6 17 8 -9 13 -34 7
-45 27 -19 34 42 11 63 6 78 -17z m210 -102 c0 -10 -8 -20 -17 -22 -18 -3 -26
27 -11 42 12 11 28 0 28 -20z"/>
<path d="M1294 206 c-9 -23 0 -51 17 -54 17 -3 28 21 21 51 -4 21 -30 23 -38
3z"/>
<path d="M600 160 c0 -5 7 -10 15 -10 8 0 15 5 15 10 0 6 -7 10 -15 10 -8 0
-15 -4 -15 -10z"/>
<path d="M1160 160 c0 -5 7 -10 15 -10 8 0 15 5 15 10 0 6 -7 10 -15 10 -8 0
-15 -4 -15 -10z"/>
</g>
</svg>
