<?xml version="1.0" standalone="no"?>
<!DOCTYPE svg PUBLIC "-//W3C//DTD SVG 20010904//EN"
 "http://www.w3.org/TR/2001/REC-SVG-20010904/DTD/svg10.dtd">
<svg version="1.0" xmlns="http://www.w3.org/2000/svg"
 width="159.000000pt" height="50.000000pt" viewBox="0 0 159.000000 50.000000"
 preserveAspectRatio="xMidYMid meet">

<g transform="translate(0.000000,50.000000) scale(0.100000,-0.100000)"
fill="#000000" stroke="none">
<path d="M0 250 l0 -250 795 0 795 0 0 250 0 250 -795 0 -795 0 0 -250z m698
116 c-2 -13 -10 -21 -23 -21 -23 0 -33 34 -14 45 20 13 40 -1 37 -24z m192
-95 l0 -128 -61 -1 c-80 -1 -99 17 -99 93 0 70 24 99 76 93 33 -4 34 -3 34 34
0 34 3 38 25 38 l25 0 0 -129z m78 95 c-2 -13 -10 -21 -23 -21 -23 0 -33 34
-14 45 20 13 40 -1 37 -24z m382 -96 l0 -130 -25 0 -25 0 0 130 0 130 25 0 25
0 0 -130z m78 96 c-2 -13 -10 -21 -23 -21 -23 0 -33 34 -14 45 20 13 40 -1 37
-24z m-830 18 c16 -5 22 -13 20 -28 -3 -18 -9 -21 -45 -18 -37 3 -43 1 -43
-16 0 -12 11 -24 30 -32 36 -15 70 -55 70 -82 0 -34 -45 -68 -89 -68 -54 0
-71 8 -71 35 0 21 3 22 50 17 46 -4 50 -3 50 17 0 14 -12 27 -39 41 -47 23
-52 30 -53 72 -2 53 51 80 120 62z m622 -26 c29 -80 70 -202 70 -210 0 -4 -11
-8 -24 -8 -19 0 -27 8 -36 35 -10 31 -16 35 -45 35 -29 0 -35 -4 -45 -35 -9
-27 -17 -35 -36 -35 -13 0 -24 4 -24 8 0 8 41 130 70 210 9 23 18 32 35 32 17
0 26 -9 35 -32z m-520 -123 c0 -95 0 -95 -25 -95 -25 0 -25 0 -25 95 0 95 0
95 25 95 25 0 25 0 25 -95z m270 0 c0 -95 0 -95 -25 -95 -25 0 -25 0 -25 95 0
95 0 95 25 95 25 0 25 0 25 -95z m460 0 c0 -95 0 -95 -25 -95 -25 0 -25 0 -25
95 0 95 0 95 25 95 25 0 25 0 25 -95z m-350 0 c0 -23 -4 -25 -45 -25 -41 0
-45 2 -45 25 0 23 4 25 45 25 41 0 45 -2 45 -25z"/>
<path d="M787 283 c-13 -12 -7 -81 8 -93 31 -26 59 33 39 84 -6 16 -35 22 -47
9z"/>
<path d="M1177 289 c-10 -35 -9 -39 8 -39 16 0 18 14 6 44 -7 18 -8 18 -14 -5z"/>
</g>
</svg>
